<svg width="56" height="56" viewBox="0 0 56 56" fill="none" xmlns="http://www.w3.org/2000/svg">
<g clip-path="url(#clip0_1_53)" filter="url(#filter0_d_1_53)">
<path d="M52 27.575C52 16.32 50.403 0 30.452 0C10.501 0 21.257 19.311 9.12902 26.765C-4.18998 34.95 10.909 48 26.195 48C37.97 48 52 42.173 52 27.575Z" fill="#E2F9C3"/>
<path d="M24.143 15C23.214 15 22.409 15.38 21.895 15.958C21.38 16.536 21.143 17.274 21.143 18C21.143 18.726 21.38 19.464 21.895 20.042C22.409 20.621 23.215 21 24.143 21C25.071 21 25.877 20.62 26.391 20.042C26.905 19.464 27.143 18.726 27.143 18C27.143 17.274 26.905 16.536 26.391 15.958C25.877 15.379 25.071 15 24.143 15ZM31.857 15C30.929 15 30.123 15.38 29.609 15.958C29.095 16.536 28.857 17.274 28.857 18C28.857 18.726 29.095 19.464 29.609 20.042C30.123 20.621 30.929 21 31.857 21C32.786 21 33.591 20.62 34.106 20.042C34.62 19.464 34.857 18.726 34.857 18C34.857 17.274 34.62 16.536 34.106 15.958C33.591 15.379 32.786 15 31.857 15ZM24.143 16.714C24.643 16.714 24.909 16.871 25.109 17.096C25.309 17.321 25.429 17.655 25.429 18C25.429 18.345 25.309 18.679 25.109 18.904C24.909 19.129 24.643 19.286 24.143 19.286C23.643 19.286 23.377 19.129 23.177 18.904C22.977 18.679 22.857 18.345 22.857 18C22.857 17.655 22.977 17.321 23.177 17.096C23.377 16.871 23.643 16.714 24.143 16.714ZM31.857 16.714C32.357 16.714 32.623 16.871 32.823 17.096C33.023 17.321 33.143 17.655 33.143 18C33.143 18.345 33.023 18.679 32.823 18.904C32.623 19.129 32.357 19.286 31.857 19.286C31.357 19.286 31.091 19.129 30.891 18.904C30.691 18.679 30.571 18.345 30.571 18C30.571 17.655 30.691 17.321 30.891 17.096C31.091 16.871 31.357 16.714 31.857 16.714ZM20.286 21C19.5 21 18.802 21.326 18.359 21.824C17.9368 22.3074 17.7072 22.9292 17.714 23.571C17.714 24.084 17.949 24.573 18.248 25.019C16.932 25.753 16 27.109 16 28.714H17.714C17.7124 28.3758 17.7779 28.0407 17.9066 27.728C18.0353 27.4153 18.2247 27.1312 18.4638 26.8921C18.703 26.6531 18.9872 26.4638 19.2999 26.3352C19.6127 26.2066 19.9478 26.1413 20.286 26.143C20.9332 26.1412 21.5569 26.3856 22.0306 26.8266C22.5043 27.2677 22.7926 27.8723 22.837 28.518C21.7469 29.7568 21.1448 31.3499 21.143 33H22.857C22.857 30.15 25.15 27.857 28 27.857C30.85 27.857 33.143 30.15 33.143 33H34.857C34.857 31.284 34.212 29.72 33.163 28.518C33.2074 27.8723 33.4957 27.2677 33.9694 26.8266C34.4431 26.3856 35.0668 26.1412 35.714 26.143C36.0522 26.1413 36.3873 26.2066 36.7001 26.3352C37.0128 26.4638 37.297 26.6531 37.5362 26.8921C37.7753 27.1312 37.9647 27.4153 38.0934 27.728C38.2221 28.0407 38.2876 28.3758 38.286 28.714H40C40 27.139 39.129 25.771 37.854 25.026C38.144 24.584 38.286 24.076 38.286 23.571C38.2931 22.9292 38.0635 22.3072 37.641 21.824C37.198 21.326 36.5 21 35.714 21C34.928 21 34.23 21.326 33.787 21.824C33.3652 22.3076 33.136 22.9294 33.143 23.571C33.143 24.076 33.285 24.584 33.575 25.026C32.7098 25.5292 32.0473 26.3186 31.702 27.258C31.3605 27.0319 30.9993 26.8367 30.623 26.675C31.1457 26.0434 31.4309 25.2488 31.429 24.429C31.429 23.595 31.155 22.75 30.569 22.092C29.985 21.432 29.072 21 28 21C26.928 21 26.016 21.433 25.43 22.092C24.845 22.75 24.571 23.595 24.571 24.429C24.571 25.228 24.84 26.029 25.377 26.675C24.9986 26.8376 24.6355 27.0337 24.292 27.261C23.9172 26.3072 23.2207 25.5144 22.323 25.02C22.623 24.573 22.857 24.084 22.857 23.571C22.857 22.952 22.655 22.321 22.213 21.824C21.77 21.326 21.071 21 20.286 21ZM20.286 22.714C20.643 22.714 20.802 22.817 20.93 22.962C21.059 23.107 21.143 23.333 21.143 23.572C21.143 23.811 21.059 24.036 20.93 24.181C20.802 24.326 20.643 24.429 20.286 24.429C19.929 24.429 19.77 24.326 19.641 24.181C19.512 24.036 19.429 23.81 19.429 23.571C19.429 23.332 19.513 23.107 19.641 22.962C19.769 22.817 19.929 22.714 20.286 22.714ZM28 22.714C28.643 22.714 29.016 22.924 29.287 23.23C29.558 23.536 29.714 23.976 29.714 24.429C29.714 24.882 29.559 25.322 29.287 25.627C29.015 25.932 28.643 26.143 28 26.143C27.357 26.143 26.984 25.933 26.713 25.627C26.442 25.321 26.286 24.881 26.286 24.429C26.286 23.977 26.441 23.535 26.713 23.229C26.985 22.923 27.357 22.714 28 22.714ZM35.714 22.714C36.071 22.714 36.23 22.817 36.359 22.962C36.488 23.107 36.571 23.333 36.571 23.572C36.571 23.811 36.487 24.036 36.359 24.181C36.231 24.326 36.071 24.429 35.714 24.429C35.357 24.429 35.198 24.326 35.07 24.181C34.941 24.036 34.857 23.81 34.857 23.571C34.857 23.332 34.941 23.107 35.07 22.962C35.198 22.817 35.357 22.714 35.714 22.714Z" fill="#3A8241"/>
</g>
<defs>
<filter id="filter0_d_1_53" x="0" y="0" width="56" height="56" filterUnits="userSpaceOnUse" color-interpolation-filters="sRGB">
<feFlood flood-opacity="0" result="BackgroundImageFix"/>
<feColorMatrix in="SourceAlpha" type="matrix" values="0 0 0 0 0 0 0 0 0 0 0 0 0 0 0 0 0 0 127 0" result="hardAlpha"/>
<feOffset dy="4"/>
<feGaussianBlur stdDeviation="2"/>
<feComposite in2="hardAlpha" operator="out"/>
<feColorMatrix type="matrix" values="0 0 0 0 0 0 0 0 0 0 0 0 0 0 0 0 0 0 0.25 0"/>
<feBlend mode="normal" in2="BackgroundImageFix" result="effect1_dropShadow_1_53"/>
<feBlend mode="normal" in="SourceGraphic" in2="effect1_dropShadow_1_53" result="shape"/>
</filter>
<clipPath id="clip0_1_53">
<rect width="48" height="48" fill="white" transform="translate(4)"/>
</clipPath>
</defs>
</svg>
