<svg width="56" height="56" viewBox="0 0 56 56" fill="none" xmlns="http://www.w3.org/2000/svg">
<g clip-path="url(#clip0_8_6)" filter="url(#filter0_d_8_6)">
<path d="M5.033 25.747C1.398 12.625 7.686 0 18.705 0C24.802 0 27.405 3.504 34.102 11.663C40.8 19.822 50.35 8.478 52 25.747C50.614 41.66 33.348 56.064 25.332 42.774C18.034 30.674 8.667 38.868 5.032 25.747H5.033Z" fill="#E6F1F9"/>
<path d="M19 13C18.4 13 18 13.4 18 14V20C18 20.6 18.4 21 19 21H34C34.6 21 35 20.6 35 20V18H36V23H28C26.907 23 26 23.907 26 25V27C25.4 27 25 27.4 25 28V34C25 34.6 25.4 35 26 35H28C28.6 35 29 34.6 29 34V28C29 27.4 28.6 27 28 27V25H36C37.093 25 38 24.093 38 23V18C38 16.907 37.093 16 36 16H35V14C35 13.4 34.6 13 34 13H19ZM20 15H33V19H20V15Z" fill="#036FC7"/>
</g>
<defs>
<filter id="filter0_d_8_6" x="0" y="0" width="56" height="56" filterUnits="userSpaceOnUse" color-interpolation-filters="sRGB">
<feFlood flood-opacity="0" result="BackgroundImageFix"/>
<feColorMatrix in="SourceAlpha" type="matrix" values="0 0 0 0 0 0 0 0 0 0 0 0 0 0 0 0 0 0 127 0" result="hardAlpha"/>
<feOffset dy="4"/>
<feGaussianBlur stdDeviation="2"/>
<feComposite in2="hardAlpha" operator="out"/>
<feColorMatrix type="matrix" values="0 0 0 0 0 0 0 0 0 0 0 0 0 0 0 0 0 0 0.25 0"/>
<feBlend mode="normal" in2="BackgroundImageFix" result="effect1_dropShadow_8_6"/>
<feBlend mode="normal" in="SourceGraphic" in2="effect1_dropShadow_8_6" result="shape"/>
</filter>
<clipPath id="clip0_8_6">
<rect width="48" height="48" fill="white" transform="translate(4)"/>
</clipPath>
</defs>
</svg>
