<svg width="43" height="41" viewBox="0 0 43 41" fill="none" xmlns="http://www.w3.org/2000/svg">
<path d="M25.6706 0.476562L24.5591 0.733635C24.5591 0.733635 15.7638 2.63717 11.9263 9.33706C7.55201 16.9752 12.4583 24.2783 12.4583 24.2783L13.5995 25.9657L15.0334 24.5123C15.0334 24.5123 16.2987 23.172 18.6754 22.3577C21.0531 21.5435 24.3676 21.2744 28.6913 23.7901C35.1298 27.5372 37.6404 33.6129 38.3778 35.5695C36.3732 36.4797 29.1409 39.4656 22.0693 35.3504C18.8471 33.4759 17.0916 31.5213 16.1111 30.1979C18.8084 29.8248 21.2099 30.1239 23.2423 30.6751C27.5293 31.8364 30.0409 34.1491 30.0409 34.1491L32.2767 31.7184C32.2767 31.7184 31.4997 30.9722 30.0836 30.0799C28.2206 28.9066 26.1977 28.0137 24.0788 27.4292C16.1111 26.2138 5.1882 25.4936 0.827759 38.0131L5.18919 38.0442C6.76705 33.5589 9.06139 31.6824 12.0702 31.0892C13.0457 32.5896 16.0119 35.6785 20.414 38.2402C30.3694 44.0338 41.4342 38.0101 41.4342 38.0101L42.635 37.384L42.244 36.0716C42.244 36.0716 39.2292 26.0688 30.3456 20.8993C28.9262 20.0724 27.4 19.4476 25.8105 19.0428C26.7443 17.8995 27.696 16.4741 28.3589 14.3835C30.5828 7.41352 26.3404 1.40783 26.3404 1.40783L25.6706 0.476562ZM24.1175 4.44968C24.8727 5.77006 26.5448 9.03898 25.1793 13.3162C24.4946 15.4558 23.4953 16.8602 22.6687 17.6974C21.845 18.5337 21.3518 18.7367 21.3518 18.7367C20.022 18.8127 18.6407 18.8447 17.5947 19.1998C17.3427 19.2859 17.1085 19.4059 16.8782 19.5049C17.2821 18.6037 17.7118 17.7094 18.1911 16.8972C18.9305 15.6379 19.731 14.416 20.5897 13.2362L17.9778 11.1736C17.9778 11.1736 16.6748 12.8841 15.3282 15.1707C14.703 16.2341 14.1352 17.3306 13.6273 18.4556C13.1331 16.5721 13.0834 14.0444 14.8161 11.0195C17.2246 6.81335 22.4077 4.99084 24.1175 4.44968Z" fill="#232B30"/>
</svg>
